<svg xmlns="http://www.w3.org/2000/svg" width="800" height="800" fill="none" viewBox="0 0 24 24"><path fill="#76539c" d="M19.344 3.95c-.496-.458-2.504-1.915-6.98-1.934 0 0-5.278-.317-7.848 2.043-1.43 1.43-1.934 3.527-1.989 6.125-.054 2.597-.12 7.464 4.57 8.785h.005l-.004 2.015s-.032.817.507.98c.649.204 1.032-.417 1.653-1.085.34-.367.808-.906 1.164-1.317 3.21.27 5.676-.347 5.957-.437.648-.21 4.316-.68 4.91-5.547.617-5.023-.297-8.195-1.945-9.629Zm.543 9.26c-.504 4.063-3.477 4.321-4.024 4.497-.234.074-2.402.613-5.125.438 0 0-2.031 2.449-2.664 3.085-.207.207-.433.188-.43-.222 0-.27.016-3.348.016-3.348-.004 0-.004 0 0 0-3.976-1.101-3.742-5.246-3.699-7.414.043-2.168.453-3.945 1.664-5.14 2.176-1.973 6.656-1.68 6.656-1.68 3.785.015 5.598 1.156 6.02 1.539 1.394 1.195 2.105 4.055 1.586 8.246Zm-5.43-3.155c.016.336-.488.36-.504.023-.043-.86-.445-1.277-1.273-1.324-.336-.02-.305-.524.027-.504 1.09.059 1.695.684 1.75 1.805Zm.793.441c.04-1.656-.996-2.953-2.96-3.098-.333-.023-.298-.527.034-.503 2.266.164 3.473 1.722 3.43 3.613-.004.336-.512.32-.504-.012Zm1.836.524c.004.335-.504.34-.504.003-.023-3.183-2.145-4.918-4.719-4.937-.332-.004-.332-.504 0-.504 2.88.02 5.196 2.008 5.223 5.438Zm-.441 3.832v.007c-.422.743-1.211 1.563-2.024 1.301l-.008-.012c-.824-.23-2.765-1.23-3.992-2.207-.633-.5-1.21-1.09-1.656-1.656a12.68 12.68 0 0 1-1.203-1.82C6.93 8.96 6.746 8.289 6.746 8.289c-.262-.812.555-1.601 1.3-2.023h.009c.36-.188.703-.125.933.152 0 0 .485.578.692.863.195.266.457.692.593.93.239.426.09.86-.144 1.039l-.469.375c-.238.191-.207.547-.207.547s.695 2.629 3.293 3.293c0 0 .356.031.547-.207l.375-.469c.18-.234.613-.383 1.039-.144.574.324 1.305.828 1.79 1.285.273.222.335.562.148.922Z"/></svg>